<svg xmlns="http://www.w3.org/2000/svg" xmlns:xlink="http://www.w3.org/1999/xlink" width="500" zoomAndPan="magnify" viewBox="0 0 375 374.999991" height="500" preserveAspectRatio="xMidYMid meet" version="1.0"><defs><g/><clipPath id="38ed79e208"><path d="M 37.5 129.527344 L 134.988281 129.527344 L 134.988281 245.777344 L 37.5 245.777344 Z M 37.5 129.527344 " clip-rule="nonzero"/></clipPath></defs><g fill="#000b3d" fill-opacity="1"><g transform="translate(166.164365, 182.330689)"><g><path d="M 7.109375 0 L 7.109375 -6.300781 L 11.414062 -6.300781 C 15.824219 -6.300781 18.992188 -9.292969 18.992188 -13.859375 C 18.992188 -18.117188 15.792969 -21.203125 11.351562 -21.203125 L 2.167969 -21.203125 L 2.167969 0 Z M 7.109375 -16.808594 L 11.148438 -16.808594 C 12.769531 -16.808594 14.046875 -15.34375 14.046875 -13.859375 C 14.046875 -12.066406 12.753906 -10.679688 11.148438 -10.679688 L 7.109375 -10.679688 Z M 7.109375 -16.808594 "/></g></g></g><g fill="#000b3d" fill-opacity="1"><g transform="translate(191.898776, 182.330689)"><g><path d="M 12.207031 -24.929688 L 13.734375 -23.089844 L 17.429688 -23.089844 L 13.984375 -27.207031 L 10.398438 -27.207031 L 6.984375 -23.089844 L 10.664062 -23.089844 Z M 12.347656 0.484375 C 18.695312 0.484375 23.871094 -4.476562 23.871094 -10.632812 C 23.871094 -16.808594 18.695312 -21.734375 12.347656 -21.734375 C 5.972656 -21.734375 0.8125 -16.808594 0.8125 -10.632812 C 0.8125 -4.476562 5.972656 0.484375 12.347656 0.484375 Z M 12.347656 -4.039062 C 8.699219 -4.039062 5.753906 -6.796875 5.753906 -10.617188 C 5.753906 -14.453125 8.667969 -17.214844 12.347656 -17.214844 C 16.011719 -17.214844 18.945312 -14.453125 18.945312 -10.617188 C 18.945312 -6.796875 16.011719 -4.039062 12.347656 -4.039062 Z M 12.347656 -4.039062 "/></g></g></g><g fill="#000b3d" fill-opacity="1"><g transform="translate(222.980498, 182.330689)"><g><path d="M 16.011719 0 L 16.011719 -4.398438 L 7.109375 -4.398438 L 7.109375 -21.203125 L 2.167969 -21.203125 L 2.167969 0 Z M 16.011719 0 "/></g></g></g><g fill="#000b3d" fill-opacity="1"><g transform="translate(246.002277, 182.330689)"><g><path d="M 17.261719 0 L 17.261719 -4.398438 L 7.109375 -4.398438 L 7.109375 -8.699219 L 15.699219 -8.699219 L 15.699219 -12.816406 L 7.109375 -12.816406 L 7.109375 -16.824219 L 17.121094 -16.824219 L 17.121094 -21.203125 L 2.167969 -21.203125 L 2.167969 0 Z M 17.261719 0 "/></g></g></g><g fill="#000b3d" fill-opacity="1"><g transform="translate(270.573231, 182.330689)"><g/></g></g><g fill="#318f9a" fill-opacity="1"><g transform="translate(155.541074, 220.643789)"><g><path d="M 6.148438 0 C 10 0 12.570312 -2.425781 12.570312 -6.074219 C 12.570312 -9.707031 9.992188 -12.132812 6.121094 -12.132812 L 1.445312 -12.132812 L 1.445312 0 Z M 3.628906 -10.160156 L 6.058594 -10.160156 C 8.777344 -10.160156 10.332031 -8.519531 10.332031 -6.039062 C 10.332031 -3.542969 8.734375 -1.980469 6.074219 -1.980469 L 3.628906 -1.980469 Z M 3.628906 -10.160156 "/></g></g></g><g fill="#318f9a" fill-opacity="1"><g transform="translate(183.328721, 220.643789)"><g><path d="M 6.53125 -13.007812 L 8.199219 -15.140625 L 6.601562 -15.699219 L 4.976562 -13.007812 Z M 9.839844 0 L 9.839844 -1.988281 L 3.667969 -1.988281 L 3.667969 -5.226562 L 8.929688 -5.226562 L 8.929688 -7.101562 L 3.667969 -7.101562 L 3.667969 -10.144531 L 9.757812 -10.144531 L 9.757812 -12.132812 L 1.445312 -12.132812 L 1.445312 0 Z M 9.839844 0 "/></g></g></g><g fill="#318f9a" fill-opacity="1"><g transform="translate(208.368801, 220.643789)"><g><path d="M 6.992188 0.257812 C 9.582031 0.257812 12.285156 -1.230469 12.847656 -4.476562 L 10.570312 -4.476562 C 10.097656 -2.613281 8.652344 -1.785156 6.929688 -1.785156 C 4.640625 -1.785156 2.808594 -3.445312 2.808594 -6.074219 C 2.808594 -8.664062 4.640625 -10.382812 6.929688 -10.382812 C 8.664062 -10.382812 10.097656 -9.546875 10.582031 -7.679688 L 12.847656 -7.679688 C 12.285156 -10.917969 9.554688 -12.417969 6.992188 -12.417969 C 3.417969 -12.417969 0.589844 -9.609375 0.589844 -6.085938 C 0.589844 -2.558594 3.417969 0.257812 6.992188 0.257812 Z M 6.992188 0.257812 "/></g></g></g><g fill="#318f9a" fill-opacity="1"><g transform="translate(236.432991, 220.643789)"><g><path d="M 7.128906 0.257812 C 10.742188 0.257812 13.675781 -2.558594 13.675781 -6.085938 C 13.675781 -9.609375 10.742188 -12.417969 7.128906 -12.417969 C 3.515625 -12.417969 0.589844 -9.609375 0.589844 -6.085938 C 0.589844 -2.558594 3.515625 0.257812 7.128906 0.257812 Z M 7.128906 -1.785156 C 4.746094 -1.785156 2.808594 -3.613281 2.808594 -6.074219 C 2.808594 -8.546875 4.738281 -10.382812 7.128906 -10.382812 C 9.527344 -10.382812 11.464844 -8.554688 11.464844 -6.074219 C 11.464844 -3.613281 9.527344 -1.785156 7.128906 -1.785156 Z M 7.128906 -1.785156 "/></g></g></g><g fill="#318f9a" fill-opacity="1"><g transform="translate(265.317888, 220.643789)"><g><path d="M 3.667969 0 L 3.667969 -4.300781 L 5.746094 -4.300781 C 5.90625 -4.300781 6.058594 -4.300781 6.21875 -4.308594 L 8.617188 0 L 11.167969 0 L 8.421875 -4.648438 C 9.910156 -5.164062 10.890625 -6.46875 10.890625 -8.179688 C 10.890625 -10.542969 9.136719 -12.132812 6.683594 -12.132812 L 1.445312 -12.132812 L 1.445312 0 Z M 3.667969 -10.152344 L 6.59375 -10.152344 C 7.769531 -10.152344 8.671875 -9.285156 8.671875 -8.179688 C 8.671875 -6.992188 7.777344 -6.183594 6.601562 -6.171875 L 3.667969 -6.171875 Z M 3.667969 -10.152344 "/></g></g></g><g clip-path="url(#38ed79e208)"><path fill="#318f9a" d="M 55.808594 192.367188 L 55.808594 245.464844 L 73.984375 245.464844 L 73.984375 217.988281 L 100 217.988281 C 104.664062 217.988281 108.882812 216.089844 111.917969 213.191406 C 114.816406 210.128906 116.859375 205.910156 116.859375 201.273438 L 116.859375 129.53125 L 98.539062 129.53125 L 98.539062 157.007812 L 72.5 157.007812 C 67.839844 157.007812 63.785156 158.910156 60.722656 161.945312 C 57.707031 165.03125 55.808594 169.089844 55.808594 173.75 Z M 55.808594 236.308594 L 37.488281 236.308594 L 37.488281 173.75 C 37.488281 164.148438 41.40625 155.269531 47.808594 149.03125 C 54.066406 142.632812 62.925781 138.714844 72.523438 138.714844 L 135.105469 138.714844 L 135.105469 201.25 C 135.105469 210.847656 131.1875 219.730469 124.789062 225.964844 C 118.527344 232.367188 109.671875 236.285156 100.070312 236.285156 L 55.808594 236.285156 Z M 98.585938 192.949219 L 98.585938 175.210938 L 80.847656 175.210938 C 78.949219 175.210938 77.207031 176.089844 76.050781 177.25 C 74.890625 178.410156 74.007812 180.148438 74.007812 182.050781 L 74.007812 199.789062 L 91.746094 199.789062 C 93.648438 199.789062 95.386719 199.070312 96.546875 197.746094 C 97.867188 196.589844 98.585938 194.847656 98.585938 192.949219 Z M 98.585938 192.949219 " fill-opacity="1" fill-rule="nonzero"/></g></svg>